<?xml version="1.0" encoding="UTF-8" standalone="no"?>
<!DOCTYPE svg PUBLIC "-//W3C//DTD SVG 1.1//EN" "http://www.w3.org/Graphics/SVG/1.1/DTD/svg11.dtd">
<svg width="100%" height="100%" viewBox="0 0 717 717" version="1.1" xmlns="http://www.w3.org/2000/svg" xmlns:xlink="http://www.w3.org/1999/xlink" xml:space="preserve" style="fill-rule:evenodd;clip-rule:evenodd;stroke-linejoin:round;stroke-miterlimit:1.41421;">
    <g transform="matrix(1,0,0,1,-651.999,-219.923)">
        <g transform="matrix(0.972828,0.231528,-0.231528,0.972828,161.34,-218.212)">
            <g transform="matrix(0.740893,0,0,0.740893,604.343,64.219)">
                <path d="M548,210.262C480.343,210.262 415.935,224.164 357.466,249.255L548,693.834L548,210.262Z" style="fill:rgb(144,50,137);fill-rule:nonzero;"/>
            </g>
            <g transform="matrix(0.740893,0,0,0.740893,604.343,64.219)">
                <path d="M727.639,244.737C672.101,222.502 611.481,210.262 548,210.262L548,693.834L727.639,244.737Z" style="fill:rgb(254,204,1);fill-rule:nonzero;"/>
            </g>
            <g transform="matrix(0.740893,0,0,0.740893,604.343,64.219)">
                <path d="M206.063,351.897C160.154,397.806 123.442,452.906 98.903,514.196L548,693.834L206.063,351.897Z" style="fill:rgb(46,46,46);fill-rule:nonzero;"/>
            </g>
            <g transform="matrix(0.740893,0,0,0.740893,604.343,64.219)">
                <path d="M357.466,249.255C300.535,273.686 249.234,308.725 206.063,351.897L548,693.834L357.466,249.255Z" style="fill:rgb(0,160,224);fill-rule:nonzero;"/>
            </g>
            <g transform="matrix(0.740893,0,0,0.740893,604.343,64.219)">
                <path d="M1031.57,693.834C1031.57,626.177 1017.67,561.769 992.579,503.3L548,693.834L1031.57,693.834Z" style="fill:rgb(235,111,9);fill-rule:nonzero;"/>
            </g>
            <g transform="matrix(0.740893,0,0,0.740893,604.343,64.219)">
                <path d="M889.937,351.897C844.028,305.988 788.928,269.276 727.639,244.737L548,693.834L889.937,351.897Z" style="fill:rgb(183,208,107);fill-rule:nonzero;"/>
            </g>
            <g transform="matrix(0.740893,0,0,0.740893,604.343,64.219)">
                <path d="M992.579,503.3C968.148,446.369 933.109,395.068 889.937,351.897L548,693.834L992.579,503.3Z" style="fill:rgb(103,92,162);fill-rule:nonzero;"/>
            </g>
            <g transform="matrix(0.740893,0,0,0.740893,604.343,64.219)">
                <path d="M997.097,873.473C1019.33,817.935 1031.57,757.315 1031.57,693.834L548,693.834L997.097,873.473Z" style="fill:rgb(190,29,46);fill-rule:nonzero;"/>
            </g>
            <g transform="matrix(0.740893,0,0,0.740893,604.343,64.219)">
                <path d="M368.361,1142.93C423.899,1165.17 484.519,1177.41 548,1177.41L548,693.834L368.361,1142.93Z" style="fill:rgb(254,204,1);fill-rule:nonzero;"/>
            </g>
            <g transform="matrix(0.740893,0,0,0.740893,604.343,64.219)">
                <path d="M738.534,1138.41C795.465,1113.98 846.766,1078.94 889.937,1035.77L548,693.834L738.534,1138.41Z" style="fill:rgb(0,160,224);fill-rule:nonzero;"/>
            </g>
            <g transform="matrix(0.740893,0,0,0.740893,604.343,64.219)">
                <path d="M548,1177.41C615.657,1177.41 680.065,1163.5 738.534,1138.41L548,693.834L548,1177.41Z" style="fill:rgb(144,50,137);fill-rule:nonzero;"/>
            </g>
            <g transform="matrix(0.740893,0,0,0.740893,604.343,64.219)">
                <path d="M548,693.834L889.937,1035.77C935.846,989.863 972.559,934.762 997.097,873.473L548,693.834Z" style="fill:rgb(46,46,46);fill-rule:nonzero;"/>
            </g>
            <g transform="matrix(0.740893,0,0,0.740893,604.343,64.219)">
                <path d="M64.428,693.834C64.428,761.491 78.33,825.899 103.421,884.368L548,693.834L64.428,693.834Z" style="fill:rgb(235,111,9);fill-rule:nonzero;"/>
            </g>
            <g transform="matrix(0.740893,0,0,0.740893,604.343,64.219)">
                <path d="M206.063,1035.77C251.972,1081.68 307.072,1118.39 368.361,1142.93L548,693.834L206.063,1035.77Z" style="fill:rgb(183,208,107);fill-rule:nonzero;"/>
            </g>
            <g transform="matrix(0.740893,0,0,0.740893,604.343,64.219)">
                <path d="M98.903,514.195C76.667,569.733 64.428,630.353 64.428,693.834L548,693.834L98.903,514.195Z" style="fill:rgb(190,29,46);fill-rule:nonzero;"/>
            </g>
            <g transform="matrix(0.740893,0,0,0.740893,604.343,64.219)">
                <path d="M103.421,884.368C127.852,941.299 162.891,992.6 206.063,1035.77L548,693.834L103.421,884.368Z" style="fill:rgb(103,92,162);fill-rule:nonzero;"/>
            </g>
        </g>
    </g>
</svg>
